<svg width="14" height="15" viewBox="0 0 14 15" fill="none" xmlns="http://www.w3.org/2000/svg">
<path d="M10 1.59375H4C2.34315 1.59375 1 2.9369 1 4.59375V10.5938C1 12.2506 2.34315 13.5938 4 13.5938H10C11.6569 13.5938 13 12.2506 13 10.5938V4.59375C13 2.9369 11.6569 1.59375 10 1.59375Z" stroke="white" stroke-width="1.5"/>
<path d="M9.40002 7.21593C9.47407 7.71528 9.38877 8.22526 9.15627 8.67334C8.92377 9.12142 8.55591 9.48478 8.105 9.71173C7.65408 9.93869 7.14309 10.0177 6.64469 9.93749C6.14629 9.85729 5.68588 9.62198 5.32892 9.26503C4.97197 8.90807 4.73666 8.44766 4.65646 7.94926C4.57626 7.45086 4.65526 6.93987 4.88222 6.48896C5.10917 6.03804 5.47253 5.67018 5.92061 5.43768C6.36869 5.20518 6.87867 5.11988 7.37802 5.19393C7.88737 5.26946 8.35893 5.50681 8.72304 5.87091C9.08714 6.23502 9.32449 6.70658 9.40002 7.21593Z" stroke="white" stroke-width="1.5" stroke-linecap="round" stroke-linejoin="round"/>
</svg>
